<svg preserveAspectRatio="none" overflow="visible" style="display: block;" width="24" height="24" viewBox="0 0 24 24" fill="none" xmlns="http://www.w3.org/2000/svg">
<g id="Icon">
<path id="Subtract" fill-rule="evenodd" clip-rule="evenodd" d="M4.8 19.8V4.2H4.5C4.00294 4.2 3.6 3.79706 3.6 3.3C3.6 2.80294 4.00294 2.4 4.5 2.4H19.5C19.9971 2.4 20.4 2.80294 20.4 3.3C20.4 3.79706 19.9971 4.2 19.5 4.2H19.2V19.8H19.5C19.9971 19.8 20.4 20.2029 20.4 20.7C20.4 21.1971 19.9971 21.6 19.5 21.6H15.3C14.8029 21.6 14.4 21.1971 14.4 20.7V17.7C14.4 17.2029 13.9971 16.8 13.5 16.8H10.5C10.0029 16.8 9.6 17.2029 9.6 17.7V20.7C9.6 21.1971 9.19706 21.6 8.7 21.6H4.5C4.00294 21.6 3.6 21.1971 3.6 20.7C3.6 20.2029 4.00294 19.8 4.5 19.8H4.8ZM8.4 6.6C8.4 6.26863 8.66863 6 9 6H10.2C10.5314 6 10.8 6.26863 10.8 6.6V7.8C10.8 8.13137 10.5314 8.4 10.2 8.4H9C8.66863 8.4 8.4 8.13137 8.4 7.8V6.6ZM9 10.8C8.66863 10.8 8.4 11.0686 8.4 11.4V12.6C8.4 12.9314 8.66863 13.2 9 13.2H10.2C10.5314 13.2 10.8 12.9314 10.8 12.6V11.4C10.8 11.0686 10.5314 10.8 10.2 10.8H9ZM13.2 6.6C13.2 6.26863 13.4686 6 13.8 6H15C15.3314 6 15.6 6.26863 15.6 6.6V7.8C15.6 8.13137 15.3314 8.4 15 8.4H13.8C13.4686 8.4 13.2 8.13137 13.2 7.8V6.6ZM13.8 10.8C13.4686 10.8 13.2 11.0686 13.2 11.4V12.6C13.2 12.9314 13.4686 13.2 13.8 13.2H15C15.3314 13.2 15.6 12.9314 15.6 12.6V11.4C15.6 11.0686 15.3314 10.8 15 10.8H13.8Z" fill="white"/>
</g>
</svg>
